<svg width="112" height="112" viewBox="0 0 112 112" fill="none" xmlns="http://www.w3.org/2000/svg">
<path d="M102.667 35.0002C102.667 20.8602 91.1407 9.3335 77.0007 9.3335C68.3207 9.3335 60.6673 13.6735 56.0007 20.3002C51.334 13.6735 43.6807 9.3335 35.0007 9.3335C28.1972 9.34583 21.676 12.054 16.8652 16.8647C12.0544 21.6755 9.34632 28.1967 9.33398 35.0002C9.33398 43.6802 13.674 51.3335 20.3007 56.0002C13.674 60.6668 9.33398 68.3202 9.33398 77.0002C9.33398 91.1402 20.8607 102.667 35.0007 102.667C43.6807 102.667 51.334 98.3268 56.0007 91.7002C60.6673 98.3268 68.3207 102.667 77.0007 102.667C91.1407 102.667 102.667 91.1402 102.667 77.0002C102.667 68.3202 98.3273 60.6668 91.7007 56.0002C98.3273 51.3335 102.667 43.6802 102.667 35.0002ZM56.0007 74.6668C45.6873 74.6668 37.334 66.3135 37.334 56.0002C37.334 45.6868 45.6873 37.3335 56.0007 37.3335C66.314 37.3335 74.6673 45.6868 74.6673 56.0002C74.6673 66.3135 66.314 74.6668 56.0007 74.6668Z" fill="#1C6FFF"/>
</svg>
