<svg width="56" height="56" viewBox="0 0 56 56" fill="none" xmlns="http://www.w3.org/2000/svg">
<path d="M44.3346 9.33325H11.668C9.81064 9.33325 8.0303 10.0706 6.71897 11.3843C5.4053 12.6956 4.66797 14.4759 4.66797 16.3333V39.6666C4.66797 41.5239 5.4053 43.3043 6.71897 44.6156C8.0303 45.9293 9.81064 46.6666 11.668 46.6666H44.3346C46.192 46.6666 47.9723 45.9293 49.2836 44.6156C50.5973 43.3043 51.3346 41.5239 51.3346 39.6666V16.3333C51.3346 14.4759 50.5973 12.6956 49.2836 11.3843C47.9723 10.0706 46.192 9.33325 44.3346 9.33325ZM42.7713 13.9999L28.0013 25.0833L13.2313 13.9999H42.7713ZM44.3346 41.9999H11.668C11.0496 41.9999 10.4546 41.7549 10.0183 41.3162C9.57964 40.8799 9.33464 40.2849 9.33464 39.6666V16.9166L26.6013 29.8666C27.005 30.1699 27.4973 30.3333 28.0013 30.3333C28.5053 30.3333 28.9976 30.1699 29.4013 29.8666L46.668 16.9166V39.6666C46.668 40.2849 46.423 40.8799 45.9843 41.3162C45.548 41.7549 44.953 41.9999 44.3346 41.9999Z" fill="#69FFDB"/>
</svg>
