<svg width="24" height="26" viewBox="0 0 24 26" fill="none" xmlns="http://www.w3.org/2000/svg">
<path d="M20.0133 9.39997C20.4791 9.30408 20.9594 9.31178 21.4221 9.42256C21.8847 9.53335 22.319 9.74465 22.6959 10.0423C23.0728 10.34 23.3835 10.7172 23.6073 11.1485C23.831 11.5799 23.9627 12.0556 23.9933 12.5436L24 12.766V20.3573C24 21.2676 23.7071 22.1523 23.167 22.8731C22.6268 23.5939 21.87 24.1101 21.0147 24.341L20.784 24.3959L13.32 25.9334C12.8542 26.0293 12.3739 26.0216 11.9113 25.9108C11.4486 25.8 11.0143 25.5887 10.6374 25.291C10.2606 24.9934 9.94983 24.6162 9.72607 24.1848C9.50231 23.7534 9.37068 23.2778 9.34 22.7898L9.33333 22.5674V14.9761C9.3333 14.0657 9.62624 13.181 10.1664 12.4602C10.7065 11.7395 11.4634 11.2233 12.3187 10.9924L12.5493 10.9375L20.0133 9.39997ZM15.3467 4.87127C15.8124 4.77537 16.2928 4.78308 16.7554 4.89386C17.2181 5.00464 17.6524 5.21595 18.0292 5.51362C18.4061 5.81129 18.7168 6.18845 18.9406 6.61983C19.1644 7.05121 19.296 7.52685 19.3267 8.01487L19.3333 8.23725V8.41846L12.288 9.86945C11.1247 10.1091 10.0722 10.7413 9.29705 11.6659C8.52189 12.5905 8.06828 13.7549 8.008 14.9747L8 15.2534V21.4719C7.15436 21.4721 6.34025 21.1414 5.72257 20.5468C5.10489 19.9521 4.72982 19.138 4.67333 18.2693L4.66667 18.0387V10.4474C4.66655 9.53721 4.9593 8.65263 5.49918 7.93189C6.03905 7.21115 6.79562 6.69484 7.65067 6.46366L7.88267 6.40875L15.3467 4.87127ZM10.68 0.0666429C11.1457 -0.0292439 11.6259 -0.0215788 12.0884 0.0891244C12.551 0.199828 12.9852 0.411013 13.3621 0.708537C13.7389 1.00606 14.0497 1.38306 14.2735 1.81427C14.4974 2.24549 14.6291 2.72097 14.66 3.20887L14.6667 3.43125V3.61246L7.62133 5.06208C6.45782 5.3018 5.40519 5.93414 4.62999 6.85905C3.8548 7.78397 3.40133 8.94862 3.34133 10.1687L3.33333 10.4474V16.6659C2.48769 16.6661 1.67358 16.3354 1.0559 15.7408C0.438224 15.1461 0.0631559 14.332 0.00666685 13.4633L3.33641e-08 13.2327V5.64138C-0.000114108 4.73121 0.292638 3.84663 0.832509 3.12589C1.37238 2.40515 2.12895 1.88884 2.984 1.65766L3.216 1.60275L10.68 0.0666429Z" fill="#468AFF"/>
</svg>
